<?xml version="1.0" encoding="iso-8859-1"?>
<!-- Uploaded to: SVG Repo, www.svgrepo.com, Generator: SVG Repo Mixer Tools -->
<svg version="1.1" id="Layer_1" xmlns="http://www.w3.org/2000/svg" xmlns:xlink="http://www.w3.org/1999/xlink" 
	 viewBox="0 0 512.005 512.005" xml:space="preserve">
<path style="fill:#CCCCCC;" d="M489.241,88.277H147.519c-12.569,0-22.759,10.189-22.759,22.759v206.365
	c0,12.569,10.189,22.759,22.759,22.759h341.723c12.569,0,22.759-10.19,22.759-22.759V111.036
	C512,98.466,501.811,88.277,489.241,88.277z"/>
<rect x="124.764" y="138.891" style="fill:#4D4D4D;" width="387.24" height="58.851"/>
<path style="fill:#FFCA6C;" d="M364.481,171.845H22.759C10.189,171.845,0,182.035,0,194.604v206.365
	c0,12.569,10.189,22.759,22.759,22.759h341.723c12.569,0,22.759-10.189,22.759-22.759V194.604
	C387.24,182.035,377.051,171.845,364.481,171.845z"/>
<rect y="222.46" style="fill:#4D4D4D;" width="387.24" height="58.851"/>
<circle style="fill:#47A7DD;" cx="111.817" cy="355.463" r="35.311"/>
<circle style="fill:#FC583D;" cx="76.506" cy="355.463" r="35.311"/>
<g>
	<rect x="204.978" y="310.454" style="fill:#4D4D4D;" width="148.305" height="17.655"/>
	<rect x="260.122" y="345.188" style="fill:#4D4D4D;" width="93.15" height="17.655"/>
</g>
</svg>